<svg width="977" height="472" viewBox="0 0 977 472" fill="none" xmlns="http://www.w3.org/2000/svg">
<path d="M324.175 205.159L330.888 207.841L341.628 213.205L359.082 215.886L361.767 217.227H369.822L380.563 206.5H384.591L392.646 221.25L398.017 226.614V229.295L415.47 233.318L428.896 238.682V246.727L435.609 249.409L446.349 268.182L451.72 280.25L450.377 289.636L446.349 292.318L438.294 290.977L436.951 289.636H430.238L427.553 290.977L418.155 286.955H408.757L403.387 292.318L389.961 296.341L383.248 300.364L381.906 303.045L376.535 301.705V295L383.248 292.318L381.906 282.932H369.822L371.165 276.227L373.85 272.205H376.535V269.523L383.248 265.5L377.878 264.159L363.109 270.864H360.424V273.545H348.341L344.313 277.568L329.545 278.909L322.832 276.227H289.268L286.582 278.909L293.295 277.568L317.462 281.591L328.202 282.932L337.6 285.614L344.313 288.295L352.369 293.659L346.998 303.045L340.286 309.75L330.888 312.432L320.147 317.795H317.462V320.477L313.434 323.159L312.091 328.523L317.462 325.841L321.489 321.818L333.573 316.455L346.998 315.114L353.711 316.455L351.026 321.818L348.341 332.545L340.286 341.932L336.258 356.682H333.573L330.888 364.727L326.86 371.432V374.114L332.23 371.432L338.943 359.364L345.656 345.955L349.684 339.25L357.739 331.205L367.137 329.864L376.535 323.159L381.906 317.795L388.618 313.773L391.304 309.75L398.017 305.727L410.1 304.386L412.785 311.091L419.498 315.114L432.924 312.432V308.409H439.636L436.951 317.795L431.581 324.5V337.909L427.553 356.682V366.068L432.924 368.75L443.664 386.182L457.09 400.932L466.488 406.295L465.146 413L446.349 422.386L431.581 431.773L423.526 437.136L422.183 439.818H419.498L416.813 445.182L407.415 451.886L399.359 461.273L380.563 470.659L371.165 472H353.711L333.573 469.318L320.147 462.614L309.406 453.227L306.721 449.205L305.379 431.773L308.064 414.341L309.406 408.977H306.721L302.693 419.705L301.351 437.136L294.638 442.5L285.24 445.182H269.129L251.675 438.477L232.879 425.068L223.481 413L220.796 406.295L218.111 374.114L219.453 344.614L228.851 319.136L230.194 313.773L231.537 290.977L236.907 284.273H261.073L262.416 281.591H251.675L238.25 278.909L232.879 270.864V260.136L238.25 246.727L246.305 233.318L250.333 223.932H269.129L293.295 221.25L310.749 214.545L324.175 205.159Z" fill="#D36F0D"/>
<path d="M414.128 0L424.868 1.34091L432.924 6.70455L436.951 12.0682L440.979 24.1364V36.2045L434.266 65.7045L426.211 77.7727L420.84 99.2273L408.757 115.318L410.1 123.364L415.47 134.091L414.128 150.182L408.757 166.273L398.017 179.682H395.331L392.646 187.727L387.276 190.409L380.563 162.25L379.22 154.205V136.773L383.248 122.023L391.304 115.318H393.989L395.331 109.955L396.674 56.3182L400.702 30.8409L402.044 16.0909L406.072 8.04545L411.442 1.34091L414.128 0Z" fill="#D36F0D"/>
<path d="M568.524 362.045H580.607L596.718 370.091L603.431 376.795L606.116 380.818L604.774 394.227L599.404 399.591L577.922 403.614L567.182 411.659L564.496 413H551.071L533.617 407.636L524.219 404.955L505.423 403.614L502.738 402.273L489.312 400.932L490.655 395.568L497.367 390.205L520.191 382.159L529.589 375.455L548.386 367.409L568.524 362.045Z" fill="#D36F0D"/>
<path d="M548.386 84.4773L555.099 87.1591L560.469 93.8637L563.154 99.2273V109.955L557.784 127.386L549.728 140.795L538.988 150.182L526.904 156.886L524.219 160.909L520.191 174.318L514.821 182.364L506.766 187.727L497.368 201.136H494.682L491.997 206.5L485.284 213.205L469.173 219.909L451.72 227.955L440.979 230.636L443.664 225.273L450.377 219.909L461.118 211.864L467.831 194.432L482.599 181.023L486.627 172.977L490.655 162.25L500.053 146.159L506.766 139.455L513.479 116.659L528.247 93.8637L536.302 87.1591L548.386 84.4773Z" fill="#D36F0D"/>
<path d="M338.943 5.36365L346.998 6.70456L356.397 14.75L360.424 32.1818V44.25L355.054 61.6818L348.341 72.4091L342.971 87.1591L340.286 91.1818L338.943 109.955L336.258 118L334.915 135.432L340.286 143.477L338.943 152.864L336.258 156.886L333.573 166.273L330.888 182.364L326.86 191.75L322.832 190.409L321.489 178.341L312.091 163.591L310.749 159.568L309.406 140.795L314.777 127.386L318.804 120.682L317.462 112.636V99.2273L320.147 91.1818V57.6591L322.832 40.2273L324.175 22.7955L332.23 10.7273L338.943 5.36365Z" fill="#D36F0D"/>
<path d="M210.055 67.0454L219.454 69.7272L230.194 79.1136L235.564 89.8409L236.907 95.2045V111.295L234.222 119.341L235.564 128.727L248.99 154.204L250.333 158.227L248.99 175.659V205.159L244.963 203.818L234.222 185.045L228.852 177L223.481 155.545L220.796 139.454L218.111 126.045L214.083 119.341L204.685 100.568L202 91.1818V76.4318L207.37 68.3863L210.055 67.0454Z" fill="#D36F0D"/>
<path d="M596.155 348.472C573.219 352.157 552.146 354 532.935 354C523.329 354 516.272 350.609 511.763 343.828C507.254 337.047 505 326.433 505 311.986V241.225C505 225.746 507.303 214.543 511.91 207.614C516.615 200.538 524.113 197 534.405 197H587.334V227.958H540.286C534.405 227.958 531.464 232.38 531.464 241.225V311.986C531.464 315.377 532.101 318.104 533.376 320.168C534.748 322.084 536.561 323.042 538.816 323.042C550.087 323.042 560.379 322.674 569.691 321.937V289.873H550.578V263.338H596.155V348.472Z" fill="white"/>
<path d="M610.886 197H672.637C682.928 197 690.377 200.538 694.984 207.614C699.689 214.543 702.041 225.746 702.041 241.225V261.127C702.041 273.362 700.669 282.871 697.925 289.652C695.278 296.433 691.015 300.93 685.134 303.141L703.512 351.789H674.842L657.934 305.352H637.351V351.789H610.886V197ZM675.577 241.225C675.577 232.38 672.637 227.958 666.756 227.958H637.351V274.394H666.756C672.637 274.394 675.577 269.972 675.577 261.127V241.225Z" fill="white"/>
<path d="M735.082 351.789H706.412L745.373 197H774.778L813.74 351.789H785.07L778.454 324.148H741.698L735.082 351.789ZM748.314 295.401H771.838L760.076 243.437L748.314 295.401Z" fill="white"/>
<path d="M910.77 351.789H882.835L847.55 258.915V351.789H821.085V197H849.02L884.306 289.873V197H910.77V351.789Z" fill="white"/>
<path d="M977 351.789H924.071V320.831H937.303V227.958H924.071V197H977V227.958H963.768V320.831H977V351.789Z" fill="white"/>
<path d="M92.5659 354H63.7339L27.3145 259.8V354H0V197H28.832L65.2514 291.2V197H92.5659V354Z" fill="white"/>
<path d="M129.815 354H100.224L140.437 197H170.787L211 354H181.409L174.581 325.964H136.644L129.815 354ZM143.472 296.807H167.752L155.612 244.1L143.472 296.807Z" fill="white"/>
</svg>
