<svg width="125" height="62" viewBox="0 0 125 62" fill="none" xmlns="http://www.w3.org/2000/svg">
<g clip-path="url(#clip0_3_76)">
<path d="M41.9556 27.0142L42.8225 27.3608L44.2094 28.054L46.4633 28.4006L46.81 28.5739H47.8502L49.2372 27.1875H49.7573L50.7975 29.0938L51.491 29.7869V30.1335L53.7448 30.6534L55.4785 31.3466V32.3864L56.3454 32.733L57.7323 35.1591L58.4258 36.7188L58.2524 37.9318L57.7323 38.2784L56.6921 38.1051L56.5187 37.9318H55.6519L55.3051 38.1051L54.0915 37.5852H52.878L52.1845 38.2784L50.4508 38.7983L49.5839 39.3182L49.4105 39.6648L48.7171 39.4915V38.625L49.5839 38.2784L49.4105 37.0653H47.8502L48.0236 36.1989L48.3703 35.679H48.7171V35.3324L49.5839 34.8125L48.8904 34.6392L46.9834 35.5057H46.6366V35.8523H45.0763L44.5562 36.3722L42.6491 36.5455L41.7823 36.1989H37.448L37.1013 36.5455L37.9681 36.3722L41.0888 36.892L42.4757 37.0653L43.6893 37.4119L44.5562 37.7585L45.5964 38.4517L44.9029 39.6648L44.0361 40.5313L42.8225 40.8778L41.4355 41.571H41.0888V41.9176L40.5687 42.2642L40.3953 42.9574L41.0888 42.6108L41.6089 42.0909L43.1692 41.3977L44.9029 41.2244L45.7698 41.3977L45.423 42.0909L45.0763 43.4773L44.0361 44.6903L43.516 46.5966H43.1692L42.8225 47.6364L42.3024 48.5028V48.8494L42.9958 48.5028L43.8627 46.9432L44.7295 45.2102L45.2497 44.3438L46.2899 43.304L47.5035 43.1307L48.7171 42.2642L49.4105 41.571L50.2774 41.0511L50.6241 40.5313L51.491 40.0114L53.0513 39.8381L53.3981 40.7045L54.2649 41.2244L55.9986 40.8778V40.358H56.8655L56.5187 41.571L55.8252 42.4375V44.1705L55.3051 46.5966V47.8097L55.9986 48.1563L57.3856 50.4091L59.1193 52.3153L60.3329 53.0085L60.1595 53.875L57.7323 55.0881L55.8252 56.3011L54.785 56.9943L54.6117 57.3409H54.2649L53.9182 58.0341L52.7046 58.9006L51.6644 60.1136L49.2372 61.3267L48.0236 61.5H45.7698L43.1692 61.1534L41.4355 60.2869L40.0486 59.0739L39.7018 58.554L39.5284 56.3011L39.8752 54.0483L40.0486 53.3551H39.7018L39.1817 54.7415L39.0083 56.9943L38.1415 57.6875L36.9279 58.0341H34.8474L32.5936 57.1676L30.1664 55.4347L28.9529 53.875L28.6061 53.0085L28.2594 48.8494L28.4327 45.0369L29.6463 41.7443L29.8197 41.0511L29.9931 38.1051L30.6866 37.2386H33.8072L33.9806 36.892H32.5936L30.8599 36.5455L30.1664 35.5057V34.1193L30.8599 32.3864L31.9001 30.6534L32.4203 29.4403H34.8474L37.9681 29.0938L40.2219 28.2273L41.9556 27.0142Z" fill="#D36F0D"/>
<path d="M79.0569 25.9744H85.6449L87.8987 26.4943L89.2857 27.5341L89.9792 28.9205V33.0795L89.2857 34.4659L87.8987 35.5057L89.1123 36.1989L89.8058 37.2386L90.1526 39.1449L90.3259 44.517L90.4993 45.2102L87.0319 45.3835L86.5118 45.0369L86.3384 44.3438L86.165 38.2784L85.8183 37.5852L85.1248 37.2386L82.6976 37.0653V45.2102H79.0569L78.8835 44.8636V26.1477L79.0569 25.9744Z" fill="#FEFEFE"/>
<path d="M0 25.9744H4.681L6.06796 30.1335L8.32178 37.2386L8.49515 25.9744H11.6158L11.7892 26.1477V45.2102H7.80166L4.33426 34.4659L3.46741 31.6932L3.29404 45.2102H0V25.9744Z" fill="#FEFEFE"/>
<path d="M106.623 25.9744H111.304L111.824 27.3608L114.251 34.9858L114.945 37.2386L115.118 25.9744H118.412V45.2102H114.598L113.904 43.4773L110.61 33.2528L110.09 31.5199L109.917 45.2102H106.623V25.9744Z" fill="#FEFEFE"/>
<path d="M95.7004 25.9744H100.728L101.075 27.1875L104.542 44.3438V45.2102H100.902L100.208 41.7443L95.8738 41.571L95.7004 43.304L95.3537 45.2102L94.4868 45.3835H92.0596L91.8863 44.517L95.527 26.4943L95.7004 25.9744Z" fill="#FEFEFE"/>
<path d="M17.5104 25.9744H22.5381L22.8849 27.0142L26.5257 45.0369V45.2102L23.2316 45.3835L22.7115 45.2102L22.1914 42.6108V41.571H17.6838L17.5104 43.4773L17.1637 45.2102H13.6963L13.8696 43.6506L16.9903 28.2273L17.5104 25.9744Z" fill="#FEFEFE"/>
<path d="M69.1748 25.8011H72.4688L74.3759 26.4943L75.7628 27.7074L76.4563 29.6136V32.2131H72.9889L72.8155 29.9602L72.2954 28.9205L71.4286 28.5739L69.8683 28.7472L69.3481 29.0937L69.1748 29.6136V41.7443L69.3481 42.4375L70.0416 42.6108H71.9487L72.6422 41.9176L72.8155 41.2244L72.9889 37.2386H71.0818V34.4659H76.4563V41.7443L75.9362 43.304L74.896 44.517L73.1623 45.3835L72.2954 45.5568H69.5215L67.9612 45.2102L66.4008 44.1705L65.534 42.7841L65.1873 41.3977V29.9602L65.534 28.4006L66.2275 27.3608L67.2677 26.4943L69.1748 25.8011Z" fill="#FEFEFE"/>
<path d="M53.5714 0.5L54.9584 0.673295L55.9986 1.36648L56.5187 2.05966L57.0388 3.61932V5.17898L56.172 8.99148L55.1318 10.5511L54.4383 13.3239L52.878 15.4034L53.0513 16.4432L53.7448 17.8295L53.5714 19.9091L52.878 21.9886L51.491 23.7216H51.1443L50.7975 24.7614L50.104 25.108L49.2372 21.4688L49.0638 20.429V18.1761L49.5839 16.2699L50.6241 15.4034H50.9709L51.1443 14.7102L51.3176 7.77841L51.8377 4.4858L52.0111 2.57955L52.5312 1.53977L53.2247 0.673295L53.5714 0.5Z" fill="#D36F0D"/>
<path d="M70.9084 11.4176L71.7753 11.7642L72.4688 12.6307L72.8155 13.3239V14.7102L72.122 16.9631L71.0818 18.696L69.6949 19.9091L68.1345 20.7756L67.7878 21.2955L67.2677 23.0284L66.5742 24.0682L65.534 24.7614L64.3204 26.4943H63.9736L63.6269 27.1875L62.76 28.054L60.6796 28.9205L58.4258 29.9602L57.0388 30.3068L57.3856 29.6136L58.2524 28.9205L59.6394 27.8807L60.5062 25.6278L62.4133 23.8949L62.9334 22.8551L63.4535 21.4688L64.6671 19.3892L65.534 18.5227L66.4008 15.5767L68.3079 12.6307L69.3481 11.7642L70.9084 11.4176Z" fill="#D36F0D"/>
<path d="M43.8627 1.19318L44.9029 1.36648L46.1165 2.40625L46.6366 4.65909V6.21875L45.9431 8.47159L45.0763 9.85795L44.3828 11.7642L44.0361 12.2841L43.8627 14.7102L43.516 15.75L43.3426 18.0028L44.0361 19.0426L43.8627 20.2557L43.516 20.7756L43.1692 21.9886L42.8225 24.0682L42.3024 25.2812L41.7823 25.108L41.6089 23.5483L40.3953 21.642L40.2219 21.1222L40.0486 18.696L40.742 16.9631L41.2621 16.0966L41.0888 15.0568V13.3239L41.4355 12.2841V7.9517L41.7823 5.69886L41.9556 3.44602L42.9958 1.88636L43.8627 1.19318Z" fill="#D36F0D"/>
<path d="M121.359 25.9744H125V45.2102H121.359V25.9744Z" fill="#FEFEFE"/>
<path d="M73.509 47.2898H75.0693L77.1498 48.3295L78.0166 49.196L78.3634 49.7159L78.19 51.4489L77.4965 52.142L74.7226 52.6619L73.3356 53.7017L72.9889 53.875H71.2552L69.0014 53.1818L67.7878 52.8352L65.3606 52.6619L65.0139 52.4886L63.2802 52.3153L63.4535 51.6222L64.3204 50.929L67.2677 49.8892L68.4813 49.0227L70.9084 47.983L73.509 47.2898Z" fill="#D36F0D"/>
<path d="M27.2191 9.16477L28.4327 9.51136L29.8197 10.7244L30.5132 12.1108L30.6866 12.804V14.8835L30.3398 15.9233L30.5132 17.1364L32.2469 20.429L32.4203 20.9489L32.2469 23.2017V27.0142L31.7268 26.8409L30.3398 24.4148L29.6463 23.375L28.9528 20.6023L28.6061 18.5227L28.2594 16.7898L27.7393 15.9233L26.5257 13.4972L26.1789 12.2841V10.3778L26.8724 9.33807L27.2191 9.16477Z" fill="#D36F0D"/>
<path d="M82.6976 28.7472H85.1248L85.9917 29.267L86.3384 29.9602V33.0795L85.4716 34.1193L84.9514 34.2926H82.6976V28.7472Z" fill="#020100"/>
<path d="M19.7642 29.4403L20.111 29.7869L21.6713 38.7983L21.4979 38.9716H18.2039L18.5506 36.5455L19.7642 29.4403Z" fill="#070400" fill-opacity="0.98"/>
<path d="M97.9542 29.4403L98.301 29.9602L99.6879 37.7585V38.9716H96.3939L96.5673 37.2386L97.9542 29.4403Z" fill="#050200"/>
</g>
<defs>
<clipPath id="clip0_3_76">
<rect width="125" height="61" fill="white" transform="translate(0 0.5)"/>
</clipPath>
</defs>
</svg>
