<svg width="72" height="72" viewBox="0 0 72 72" fill="none" xmlns="http://www.w3.org/2000/svg">
<path d="M63.99 38.73C64.26 43.38 62.13 47.85 58.32 50.58L60.63 55.05C61.32 56.4 61.41 57.99 60.81 59.4C60.24 60.81 59.07 61.92 57.63 62.4L55.26 63.15C54.273 63.4811 53.208 63.5004 52.2097 63.2052C51.2114 62.91 50.3282 62.3146 49.68 61.5L43.32 54C40.65 53.55 38.13 52.41 36 50.7C34.5 51.15 33 51.39 31.5 51.39C28.86 51.39 26.22 50.58 24 49.02C22.41 49.5 20.79 49.71 19.14 49.68C16.77 49.71 14.43 49.23 12.24 48.33C10.1309 47.3909 8.32877 45.8772 7.03959 43.962C5.75041 42.0468 5.02627 39.8074 4.94999 37.5C4.70999 35.34 5.06999 33.15 5.99999 31.17C5.12999 28.92 5.03999 26.46 5.78999 24.18C6.89999 21.33 8.99999 18.96 11.61 17.46C13.35 12.39 18.24 8.99997 23.61 9.35997C28.41 4.85997 35.76 4.37997 41.1 8.24997C42.36 7.91997 43.68 7.73997 45 7.73997C49.08 7.64997 52.95 9.44997 55.5 12.66C61.62 14.25 66 19.71 66.24 26.07C66.39 29.4 65.49 32.67 63.66 35.46C63.87 36.54 63.99 37.62 63.99 38.73ZM48.99 34.5C50.7 34.71 52.05 36 52.05 37.71C52.05 38.5056 51.7339 39.2687 51.1713 39.8313C50.6087 40.3939 49.8456 40.71 49.05 40.71H47.16C46.2 43.41 44.52 45.78 42.3 47.58C43.05 47.85 43.83 48 44.61 48.21C60 48 58.2 38.61 58.2 38.46C58.1613 37.4394 57.9219 36.4364 57.4952 35.5084C57.0686 34.5804 56.4632 33.7457 55.7137 33.0519C54.9642 32.3581 54.0852 31.8188 53.1271 31.465C52.169 31.1112 51.1505 30.9498 50.13 30.99C49.3343 30.99 48.5713 30.6739 48.0087 30.1113C47.4461 29.5487 47.13 28.7856 47.13 27.99C47.13 27.1943 47.4461 26.4313 48.0087 25.8687C48.5713 25.306 49.3343 24.99 50.13 24.99C53.82 25.08 57.36 26.46 60.12 28.89C60.27 28.02 60.36 27.12 60.36 26.22C60.18 22.5 58.5 19.26 51.75 18.63C48 9.74997 38.55 14.67 38.55 17.43C38.46 18.12 39.18 19.59 39.3 19.68C40.0956 19.68 40.8587 19.996 41.4213 20.5587C41.9839 21.1213 42.3 21.8843 42.3 22.68C42.3 24.33 40.95 25.68 39.3 25.68C37.71 25.62 36.21 25.02 35.01 24C33.57 24.93 31.92 25.5 30.21 25.68C28.5 25.83 27.09 24.63 27 22.98C26.9456 22.5882 26.9717 22.1895 27.0765 21.8081C27.1814 21.4268 27.3629 21.0708 27.61 20.762C27.8571 20.4532 28.1645 20.1979 28.5135 20.0119C28.8626 19.8258 29.2459 19.7129 29.64 19.68C30.12 19.62 32.46 19.26 32.46 17.37C32.46 15.39 33.21 13.5 34.5 12C31.74 11.25 28.77 12.24 25.77 15.87C20.25 15 18 15.75 16.35 21.6C13.5 23.01 12 24 11.34 27C14.58 26.34 17.91 26.61 21 27.75C22.5 28.32 23.34 30 22.77 31.62C22.2 33.18 20.46 33.96 18.9 33.39C16.71 32.43 14.25 32.37 12 33.21C11.04 34.02 11.04 35.7 11.04 37.02C11.04 39.24 12.15 41.31 14.04 42.51C15.63 43.32 17.4 43.74 19.17 43.71C18.72 42.93 18.33 42.12 18 41.28C17.7638 40.5092 17.8358 39.6769 18.2007 38.958C18.5656 38.2392 19.1951 37.6899 19.9567 37.4257C20.7183 37.1615 21.5527 37.2029 22.2844 37.5412C23.0161 37.8796 23.5881 38.4885 23.88 39.24C25.08 42.66 28.14 45 31.74 45.39C35.85 45.18 39.51 42.75 41.31 39C42 34.86 45.33 34.5 48.99 34.5ZM54.99 56.91L53.13 53.01L51 53.49L54 57.24L54.99 56.91ZM41.04 31.08C41.0661 30.3136 40.7977 29.5663 40.29 28.9916C39.7822 28.417 39.0737 28.0585 38.31 27.99C36.18 27.87 34.11 28.59 32.52 30C30.81 31.74 29.91 34.14 30 36.57C30 37.3656 30.3161 38.1287 30.8787 38.6913C31.4413 39.2539 32.2043 39.57 33 39.57C34.71 39.57 36 38.22 36 36.57C36 35.76 36.21 34.95 36.69 34.29C37.05 33.99 37.5 33.84 37.98 33.84C39.63 33.93 41.04 32.7 41.04 31.08Z" fill="#D36F0D"/>
</svg>
