<svg width="24" height="25" viewBox="0 0 24 25" fill="none" xmlns="http://www.w3.org/2000/svg">
<g clip-path="url(#clip0_3_203)">
<path d="M21.75 12.5C21.75 9.91414 20.7228 7.43419 18.8943 5.60571C17.0658 3.77723 14.5859 2.75 12 2.75C9.41414 2.75 6.93419 3.77723 5.10571 5.60571C3.27723 7.43419 2.25 9.91414 2.25 12.5C2.25 15.0859 3.27723 17.5658 5.10571 19.3943C6.93419 21.2228 9.41414 22.25 12 22.25C14.5859 22.25 17.0658 21.2228 18.8943 19.3943C20.7228 17.5658 21.75 15.0859 21.75 12.5ZM0 12.5C0 9.3174 1.26428 6.26516 3.51472 4.01472C5.76516 1.76428 8.8174 0.5 12 0.5C15.1826 0.5 18.2348 1.76428 20.4853 4.01472C22.7357 6.26516 24 9.3174 24 12.5C24 15.6826 22.7357 18.7348 20.4853 20.9853C18.2348 23.2357 15.1826 24.5 12 24.5C8.8174 24.5 5.76516 23.2357 3.51472 20.9853C1.26428 18.7348 0 15.6826 0 12.5ZM12 8C13.1935 8 14.3381 8.47411 15.182 9.31802C16.0259 10.1619 16.5 11.3065 16.5 12.5C16.5 13.6935 16.0259 14.8381 15.182 15.682C14.3381 16.5259 13.1935 17 12 17C10.8065 17 9.66193 16.5259 8.81802 15.682C7.97411 14.8381 7.5 13.6935 7.5 12.5C7.5 11.3065 7.97411 10.1619 8.81802 9.31802C9.66193 8.47411 10.8065 8 12 8Z" fill="#D36F0D"/>
</g>
<defs>
<clipPath id="clip0_3_203">
<rect width="24" height="24" fill="white" transform="translate(0 0.5)"/>
</clipPath>
</defs>
</svg>
