<svg width="72" height="72" viewBox="0 0 72 72" fill="none" xmlns="http://www.w3.org/2000/svg">
<path d="M21 51L30.6 30.6L51 21L41.4 41.4L21 51ZM36 33.3C35.2839 33.3 34.5972 33.5845 34.0908 34.0908C33.5845 34.5972 33.3 35.2839 33.3 36C33.3 36.7161 33.5845 37.4028 34.0908 37.9092C34.5972 38.4155 35.2839 38.7 36 38.7C36.7161 38.7 37.4028 38.4155 37.9092 37.9092C38.4155 37.4028 38.7 36.7161 38.7 36C38.7 35.2839 38.4155 34.5972 37.9092 34.0908C37.4028 33.5845 36.7161 33.3 36 33.3ZM36 6C39.9397 6 43.8407 6.77597 47.4805 8.28361C51.1203 9.79126 54.4274 12.001 57.2132 14.7868C59.999 17.5726 62.2087 20.8797 63.7164 24.5195C65.224 28.1593 66 32.0603 66 36C66 43.9565 62.8393 51.5871 57.2132 57.2132C51.5871 62.8393 43.9565 66 36 66C32.0603 66 28.1593 65.224 24.5195 63.7164C20.8797 62.2087 17.5726 59.999 14.7868 57.2132C9.16071 51.5871 6 43.9565 6 36C6 28.0435 9.16071 20.4129 14.7868 14.7868C20.4129 9.16071 28.0435 6 36 6ZM36 12C29.6348 12 23.5303 14.5286 19.0294 19.0294C14.5286 23.5303 12 29.6348 12 36C12 42.3652 14.5286 48.4697 19.0294 52.9706C23.5303 57.4714 29.6348 60 36 60C42.3652 60 48.4697 57.4714 52.9706 52.9706C57.4714 48.4697 60 42.3652 60 36C60 29.6348 57.4714 23.5303 52.9706 19.0294C48.4697 14.5286 42.3652 12 36 12Z" fill="#D36F0D"/>
</svg>
