<svg width="72" height="72" viewBox="0 0 72 72" fill="none" xmlns="http://www.w3.org/2000/svg">
<path d="M49.5 16.5C51.0913 16.5 52.6174 15.8679 53.7426 14.7426C54.8679 13.6174 55.5 12.0913 55.5 10.5C55.5 8.9087 54.8679 7.38258 53.7426 6.25736C52.6174 5.13214 51.0913 4.5 49.5 4.5C47.9087 4.5 46.3826 5.13214 45.2574 6.25736C44.1321 7.38258 43.5 8.9087 43.5 10.5C43.5 12.0913 44.1321 13.6174 45.2574 14.7426C46.3826 15.8679 47.9087 16.5 49.5 16.5ZM38.7 58.2L41.7 45L48 51V69H54V46.5L47.7 40.5L49.5 31.5C51.5556 33.8554 54.0917 35.7434 56.9377 37.037C59.7837 38.3307 62.8738 39 66 39V33C60.72 33.09 55.8 30.33 53.1 25.8L50.1 21C49.02 19.2 47.1 18 45 18C44.1 18 43.5 18.3 42.6 18.3L27 24.9V39H33V28.8L38.4 26.7L33.6 51L18.9 48L17.7 54L38.7 58.2ZM12 27C11.2044 27 10.4413 26.6839 9.87868 26.1213C9.31607 25.5587 9 24.7956 9 24C9 23.2044 9.31607 22.4413 9.87868 21.8787C10.4413 21.3161 11.2044 21 12 21H21V27H12ZM15 15C14.2044 15 13.4413 14.6839 12.8787 14.1213C12.3161 13.5587 12 12.7956 12 12C12 11.2044 12.3161 10.4413 12.8787 9.87868C13.4413 9.31607 14.2044 9 15 9H30V15H15ZM9 39C8.20435 39 7.44129 38.6839 6.87868 38.1213C6.31607 37.5587 6 36.7957 6 36C6 35.2044 6.31607 34.4413 6.87868 33.8787C7.44129 33.3161 8.20435 33 9 33H21V39H9Z" fill="#D36F0D"/>
</svg>
