<svg width="159" height="62" viewBox="0 0 159 62" fill="none" xmlns="http://www.w3.org/2000/svg">
<path d="M73.7533 30.154V48.4337H67.9521V3.29333H83.3313C87.2289 3.29333 90.5525 4.59256 93.2718 7.191C96.0516 9.78944 97.4414 12.962 97.4414 16.7085C97.4414 20.5458 96.0516 23.7183 93.2718 26.2865C90.5828 28.8547 87.2592 30.1238 83.3313 30.1238H73.7533V30.154ZM73.7533 8.8528V24.5945H83.4522C85.7484 24.5945 87.6822 23.8089 89.1929 22.268C90.7338 20.7271 91.5194 18.8538 91.5194 16.7388C91.5194 14.654 90.7338 12.8109 89.1929 11.27C87.6822 9.66859 85.7787 8.883 83.4522 8.883H73.7533V8.8528Z" fill="white"/>
<path d="M112.609 16.5273C116.9 16.5273 120.284 17.6754 122.761 19.9717C125.239 22.268 126.478 25.4103 126.478 29.3986V48.4337H120.949V44.1433H120.707C118.32 47.6784 115.117 49.4308 111.129 49.4308C107.715 49.4308 104.875 48.4337 102.578 46.4093C100.282 44.385 99.1338 41.8772 99.1338 38.8557C99.1338 35.653 100.342 33.115 102.76 31.2417C105.177 29.3382 108.41 28.4015 112.428 28.4015C115.873 28.4015 118.713 29.0361 120.918 30.3051V28.9756C120.918 26.9513 120.133 25.2592 118.531 23.8392C116.93 22.4191 115.057 21.7242 112.912 21.7242C109.679 21.7242 107.11 23.0838 105.237 25.8333L100.131 22.6306C102.941 18.5516 107.11 16.5273 112.609 16.5273ZM105.116 38.9464C105.116 40.4571 105.751 41.7261 107.05 42.7232C108.319 43.7203 109.83 44.2339 111.552 44.2339C113.999 44.2339 116.175 43.3275 118.078 41.5146C119.982 39.7017 120.949 37.5867 120.949 35.1394C119.136 33.7193 116.628 32.9941 113.395 32.9941C111.038 32.9941 109.074 33.5682 107.503 34.6862C105.902 35.8645 105.116 37.2846 105.116 38.9464Z" fill="white"/>
<path d="M158.022 17.5244L138.684 62.0001H132.702L139.893 46.4397L127.143 17.5244H133.457L142.643 39.7018H142.763L151.707 17.5244H158.022Z" fill="white"/>
<path d="M50.6789 26.4679C50.6789 24.5765 50.5097 22.7666 50.1955 21.0263H25.8789V30.997L39.8833 31.0001C39.3153 34.3176 37.4873 37.1457 34.6864 39.031V45.5H43.0226C47.8901 40.995 50.6789 34.3357 50.6789 26.4679Z" fill="#4285F4"/>
<path d="M34.6896 39.031C32.3691 40.5961 29.3809 41.5116 25.8851 41.5116C19.1322 41.5116 13.4035 36.9613 11.352 30.8278H2.75293V37.4991C7.01316 45.9531 15.7693 51.7543 25.8851 51.7543C32.8767 51.7543 38.7504 49.455 43.0257 45.4969L34.6896 39.031Z" fill="#34A853"/>
<path d="M10.5418 25.8786C10.5418 24.1564 10.8288 22.4916 11.3516 20.9265V14.2551H2.75253C0.991029 17.7509 0 21.6969 0 25.8786C0 30.0603 0.99405 34.0063 2.75253 37.5021L11.3516 30.8308C10.8288 29.2657 10.5418 27.6008 10.5418 25.8786Z" fill="#FABB05"/>
<path d="M25.8851 10.2427C29.7012 10.2427 33.1184 11.557 35.8166 14.1252L43.204 6.74386C38.7172 2.56521 32.8676 0 25.8851 0C15.7723 0 7.01316 5.80117 2.75293 14.2552L11.352 20.9265C13.4035 14.793 19.1322 10.2427 25.8851 10.2427Z" fill="#E94235"/>
</svg>
