<svg xmlns="http://www.w3.org/2000/svg" version="1.1" xmlns:xlink="http://www.w3.org/1999/xlink" xmlns:svgjs="http://svgjs.dev/svgjs" width="405" height="472"><svg width="405" height="472" viewBox="0 0 405 472" fill="none" xmlns="http://www.w3.org/2000/svg">
<path d="M122.175 205.159L128.888 207.841L139.628 213.205L157.082 215.886L159.767 217.227H167.822L178.563 206.5H182.591L190.646 221.25L196.017 226.614V229.296L213.47 233.318L226.896 238.682V246.727L233.609 249.409L244.349 268.182L249.72 280.25L248.377 289.636L244.349 292.318L236.294 290.977L234.951 289.636H228.238L225.553 290.977L216.155 286.955H206.757L201.387 292.318L187.961 296.341L181.248 300.364L179.906 303.046L174.535 301.705V295L181.248 292.318L179.906 282.932H167.822L169.165 276.227L171.85 272.205H174.535V269.523L181.248 265.5L175.878 264.159L161.109 270.864H158.424V273.546H146.341L142.313 277.568L127.545 278.909L120.832 276.227H87.2676L84.5824 278.909L91.2953 277.568L115.462 281.591L126.202 282.932L135.6 285.614L142.313 288.296L150.369 293.659L144.998 303.046L138.286 309.75L128.888 312.432L118.147 317.796H115.462V320.477L111.434 323.159L110.091 328.523L115.462 325.841L119.489 321.818L131.573 316.455L144.998 315.114L151.711 316.455L149.026 321.818L146.341 332.546L138.286 341.932L134.258 356.682H131.573L128.888 364.727L124.86 371.432V374.114L130.23 371.432L136.943 359.364L143.656 345.955L147.684 339.25L155.739 331.205L165.137 329.864L174.535 323.159L179.906 317.796L186.618 313.773L189.304 309.75L196.017 305.727L208.1 304.386L210.785 311.091L217.498 315.114L230.924 312.432V308.409H237.636L234.951 317.796L229.581 324.5V337.909L225.553 356.682V366.068L230.924 368.75L241.664 386.182L255.09 400.932L264.488 406.296L263.146 413L244.349 422.386L229.581 431.773L221.526 437.136L220.183 439.818H217.498L214.813 445.182L205.415 451.886L197.359 461.273L178.563 470.659L169.165 472H151.711L131.573 469.318L118.147 462.614L107.406 453.227L104.721 449.205L103.379 431.773L106.064 414.341L107.406 408.977H104.721L100.693 419.705L99.3508 437.136L92.6379 442.5L83.2398 445.182H67.1289L49.6753 438.477L30.8792 425.068L21.4812 413L18.796 406.296L16.1108 374.114L17.4534 344.614L26.8515 319.136L28.1941 313.773L29.5366 290.977L34.907 284.273H59.0734L60.416 281.591H49.6753L36.2495 278.909L30.8792 270.864V260.136L36.2495 246.727L44.305 233.318L48.3328 223.932H67.1289L91.2953 221.25L108.749 214.546L122.175 205.159Z" fill="#D36F0D"></path>
<path d="M212.128 0L222.868 1.34091L230.924 6.70455L234.951 12.0682L238.979 24.1364V36.2045L232.266 65.7045L224.211 77.7727L218.84 99.2273L206.757 115.318L208.1 123.364L213.47 134.091L212.128 150.182L206.757 166.273L196.017 179.682H193.331L190.646 187.727L185.276 190.409L178.563 162.25L177.22 154.205V136.773L181.248 122.023L189.304 115.318H191.989L193.331 109.955L194.674 56.3182L198.702 30.8409L200.044 16.0909L204.072 8.04545L209.442 1.34091L212.128 0Z" fill="#D36F0D"></path>
<path d="M366.524 362.045H378.607L394.718 370.091L401.431 376.795L404.116 380.818L402.774 394.227L397.404 399.591L375.922 403.614L365.182 411.659L362.496 413H349.071L331.617 407.636L322.219 404.955L303.423 403.614L300.738 402.273L287.312 400.932L288.655 395.568L295.367 390.205L318.191 382.159L327.589 375.455L346.386 367.409L366.524 362.045Z" fill="#D36F0D"></path>
<path d="M346.386 84.4773L353.099 87.1591L358.469 93.8637L361.154 99.2273V109.955L355.784 127.386L347.728 140.795L336.988 150.182L324.904 156.886L322.219 160.909L318.191 174.318L312.821 182.364L304.766 187.727L295.368 201.136H292.682L289.997 206.5L283.284 213.205L267.173 219.909L249.72 227.955L238.979 230.636L241.664 225.273L248.377 219.909L259.118 211.864L265.831 194.432L280.599 181.023L284.627 172.977L288.655 162.25L298.053 146.159L304.766 139.455L311.479 116.659L326.247 93.8637L334.302 87.1591L346.386 84.4773Z" fill="#D36F0D"></path>
<path d="M136.943 5.36377L144.998 6.70468L154.397 14.7501L158.424 32.182V44.2501L153.054 61.682L146.341 72.4092L140.971 87.1592L138.286 91.182L136.943 109.955L134.258 118L132.915 135.432L138.286 143.477L136.943 152.864L134.258 156.887L131.573 166.273L128.888 182.364L124.86 191.75L120.832 190.409L119.489 178.341L110.091 163.591L108.749 159.568L107.406 140.796L112.777 127.386L116.804 120.682L115.462 112.636V99.2274L118.147 91.182V57.6592L120.832 40.2274L122.175 22.7956L130.23 10.7274L136.943 5.36377Z" fill="#D36F0D"></path>
<path d="M8.05548 67.0454L17.4535 69.7272L28.1942 79.1136L33.5645 89.8409L34.9071 95.2045V111.295L32.2219 119.341L33.5645 128.727L46.9903 154.204L48.3329 158.227L46.9903 175.659V205.159L42.9626 203.818L32.2219 185.045L26.8516 177L21.4813 155.545L18.7961 139.454L16.111 126.045L12.0832 119.341L2.68516 100.568L0 91.1818V76.4318L5.37032 68.3863L8.05548 67.0454Z" fill="#D36F0D"></path>
</svg><style>@media (prefers-color-scheme: light) { :root { filter: none; } }
@media (prefers-color-scheme: dark) { :root { filter: none; } }
</style></svg>